<?xml version="1.0" encoding="UTF-8"?>
<svg xmlns="http://www.w3.org/2000/svg" viewBox="0 0 405.03 332.63">
    <g id="lower_part">
        <path fill="#16a34a" d="M415,362s13-4,6,12-11,26-14,71h0c-.12.21-30.05,50.9-56,0l-16-48s-11-26.89-36-35.44c0,0-142-51.56-175-108.56,0,0-67.83-115.31,63.59-118a39.86,39.86,0,0,1,12.42,1.7A424.35,424.35,0,0,1,282,172s-69-20-94-13-60,8-48,59,101,93,101,93S321,359,415,362Z" transform="translate(-106.5 -135.03)"/>
        <path fill="#16a34a" d="M199,338s-18-26,10-9,69,32,69,32,32,11-9,12c0,0-18,2-50-18C219,355,205,345,199,338Z" transform="translate(-106.5 -135.03)"/>
        <path fill="#16a34a" d="M208,369s-15-24,8-7,61,25,61,25,23,5.26,0,11.13S211,375,208,369Z" transform="translate(-106.5 -135.03)"/>
        <path fill="#16a34a" d="M216.79,395.92s-13.32-19.23,7.39-6.66,51,23.67,51,23.67,23.66,8.13-6.66,8.87c0,0-13.31,1.48-37-13.31C231.58,408.49,221.22,401.1,216.79,395.92Z" transform="translate(-106.5 -135.03)"/>
        <path fill="#16a34a" d="M224.57,423.18s-12-15.57,5.14-6.35,41.62,16.41,41.62,16.41,19.05,5.16-4.37,8.21c0,0-10.18,2.34-29.82-8.57C237.14,432.88,228.47,427.3,224.57,423.18Z" transform="translate(-106.5 -135.03)"/>
        <path fill="#16a34a" d="M233.26,440.66S240,454,268,449c0,0,16-5,4,7,0,0-16,15-32,3,0,0-7-3-12-12a11.8,11.8,0,0,1-.62-6.34S228.51,435.32,233.26,440.66Z" transform="translate(-106.5 -135.03)"/>
    </g>
    <g id="upper_part">
        <path fill="#2563eb" d="M469,249s52,19,41,62-105,38-105,38-78.5,5.5-226.5-91.5c0,0-19-13-6-49,0,0,37-59,71-28,0,0,73,74,136,42,0,0-22,4-59-10,0,0-49-16,7-37,0,0,97-42,127,43,0,0,11,38,0,67l-12,30s-24,16.8-126.5-10.1c0,0,84.5,35.1,136.5,17.1C452.5,322.5,513.5,305.5,469,249Z" transform="translate(-106.5 -135.03)"/>
    </g>
</svg>